<?xml version="1.0" encoding="UTF-8" standalone="no"?>
<!DOCTYPE svg PUBLIC "-//W3C//DTD SVG 1.1//EN" "http://www.w3.org/Graphics/SVG/1.1/DTD/svg11.dtd">
<svg width="100%" height="100%" viewBox="0 0 41 41" version="1.1" xmlns="http://www.w3.org/2000/svg" xmlns:xlink="http://www.w3.org/1999/xlink" xml:space="preserve" xmlns:serif="http://www.serif.com/" style="fill-rule:evenodd;clip-rule:evenodd;stroke-linejoin:round;stroke-miterlimit:2;">
    <g transform="matrix(1,0,0,1,-3.7011,-3.6891)">
        <path d="M22.519,34.132L25.782,34.132L25.782,22L22.519,22L22.519,34.132ZM24,18.479C24.519,18.479 24.953,18.309 25.304,17.968C25.654,17.627 25.829,17.204 25.829,16.7C25.829,16.159 25.654,15.71 25.304,15.354C24.953,14.999 24.519,14.821 24.001,14.821C23.474,14.821 23.037,14.999 22.691,15.354C22.344,15.71 22.171,16.157 22.171,16.694C22.171,17.203 22.346,17.628 22.697,17.969C23.047,18.309 23.482,18.479 24,18.479ZM24.015,44.299C21.208,44.299 18.574,43.768 16.113,42.705C13.652,41.642 11.499,40.189 9.655,38.345C7.811,36.501 6.358,34.348 5.295,31.885C4.232,29.422 3.701,26.786 3.701,23.977C3.701,21.167 4.232,18.53 5.295,16.067C6.358,13.603 7.81,11.457 9.653,9.629C11.496,7.802 13.649,6.355 16.112,5.288C18.575,4.222 21.212,3.689 24.022,3.689C26.833,3.689 29.47,4.222 31.935,5.287C34.4,6.353 36.545,7.799 38.373,9.626C40.2,11.453 41.646,13.601 42.712,16.07C43.778,18.539 44.311,21.178 44.311,23.987C44.311,26.795 43.778,29.429 42.712,31.89C41.645,34.351 40.198,36.5 38.371,38.337C36.543,40.174 34.395,41.627 31.927,42.696C29.459,43.765 26.822,44.299 24.015,44.299Z" style="fill:white;fill-rule:nonzero;"/>
    </g>
</svg>
