<?xml version="1.0" encoding="utf-8"?>
<!-- Generator: Adobe Illustrator 27.6.1, SVG Export Plug-In . SVG Version: 6.00 Build 0)  -->
<svg version="1.1" id="Layer_1" xmlns:serif="http://www.serif.com/"
	 xmlns="http://www.w3.org/2000/svg" xmlns:xlink="http://www.w3.org/1999/xlink" x="0px" y="0px" viewBox="0 0 1920 1080"
	 style="enable-background:new 0 0 1920 1080;" xml:space="preserve">
<style type="text/css">
	.st0{fill:#231F20;}
</style>
<g transform="matrix(1,0,0,1,-3.7011,-3.6891)">
	<path class="st0" d="M919.2,810.7h86V491.2h-86V810.7z M958.2,398.4c13.7,0,25.1-4.5,34.3-13.5c9.2-9,13.8-20.1,13.8-33.4
		c0-14.3-4.6-26.1-13.8-35.5c-9.2-9.4-20.7-14-34.3-14c-13.9,0-25.4,4.7-34.5,14c-9.1,9.4-13.7,21.2-13.7,35.3
		c0,13.4,4.6,24.6,13.9,33.6C933.1,393.9,944.6,398.4,958.2,398.4z M958.6,1078.6c-73.9,0-143.3-14-208.2-42
		c-64.8-28-121.5-66.3-170.1-114.8c-48.6-48.6-86.8-105.3-114.8-170.2s-42-134.3-42-208.3c0-74,14-143.5,42-208.4
		c28-64.9,66.2-121.4,114.8-169.6c48.5-48.1,105.3-86.2,170.1-114.3C815.3,22.9,884.8,8.8,958.8,8.8c74,0,143.5,14,208.4,42.1
		c64.9,28.1,121.4,66.2,169.6,114.3c48.1,48.1,86.2,104.7,114.3,169.7s42.1,134.6,42.1,208.5c0,74-14,143.4-42.1,208.2
		c-28.1,64.8-66.2,121.4-114.3,169.8c-48.2,48.4-104.7,86.7-169.7,114.8S1032.6,1078.6,958.6,1078.6z"/>
</g>
</svg>
