<?xml version="1.0" encoding="UTF-8" standalone="no"?>
<!DOCTYPE svg PUBLIC "-//W3C//DTD SVG 1.1//EN" "http://www.w3.org/Graphics/SVG/1.1/DTD/svg11.dtd">
<svg width="100%" height="100%" viewBox="0 0 59 65" version="1.1" xmlns="http://www.w3.org/2000/svg" xmlns:xlink="http://www.w3.org/1999/xlink" xml:space="preserve" xmlns:serif="http://www.serif.com/" style="fill-rule:evenodd;clip-rule:evenodd;stroke-linejoin:round;stroke-miterlimit:2;">
    <g transform="matrix(1,0,0,1,-2588.8,-533.243)">
        <g transform="matrix(1.25386,0,0,1.25386,2572.42,510.673)">
            <path d="M36,18C32,18 28,18.5 28,22L28,31.5C28,33.43 29.57,35 31.5,35L30,36.5L30,37L32.23,37L34.23,35L38,35L40,37L42,37L42,36.5L40.5,35C42.43,35 44,33.43 44,31.5L44,22C44,18.5 40.42,18 36,18ZM31.5,33C30.67,33 30,32.33 30,31.5C30,30.67 30.67,30 31.5,30C32.33,30 33,30.67 33,31.5C33,32.33 32.33,33 31.5,33ZM35,26L30,26L30,22L35,22L35,26ZM37,26L37,22L42,22L42,26L37,26ZM40.5,33C39.67,33 39,32.33 39,31.5C39,30.67 39.67,30 40.5,30C41.33,30 42,30.67 42,31.5C42,32.33 41.33,33 40.5,33Z" style="fill-rule:nonzero;"/>
        </g>
        <g transform="matrix(1.25386,0,0,1.25386,2572.42,510.673)">
            <path d="M18.848,55L18.848,50.34L17.028,53.81L16.258,53.81L14.438,50.34L14.438,55L13.058,55L13.058,47.9L14.538,47.9L16.638,51.94L18.758,47.9L20.228,47.9L20.228,55L18.848,55ZM24.741,55.05C24.221,55.05 23.747,54.95 23.321,54.75C22.901,54.55 22.537,54.28 22.231,53.94C21.931,53.593 21.697,53.207 21.531,52.78C21.364,52.347 21.281,51.903 21.281,51.45C21.281,50.977 21.367,50.527 21.541,50.1C21.721,49.667 21.964,49.283 22.271,48.95C22.584,48.61 22.951,48.343 23.371,48.15C23.797,47.95 24.264,47.85 24.771,47.85C25.284,47.85 25.751,47.953 26.171,48.16C26.597,48.367 26.961,48.643 27.261,48.99C27.561,49.337 27.794,49.723 27.961,50.15C28.127,50.577 28.211,51.017 28.211,51.47C28.211,51.937 28.124,52.387 27.951,52.82C27.777,53.247 27.534,53.63 27.221,53.97C26.914,54.303 26.547,54.567 26.121,54.76C25.701,54.953 25.241,55.05 24.741,55.05ZM22.681,51.45C22.681,51.757 22.727,52.053 22.821,52.34C22.914,52.627 23.047,52.883 23.221,53.11C23.401,53.33 23.617,53.507 23.871,53.64C24.131,53.767 24.424,53.83 24.751,53.83C25.084,53.83 25.381,53.763 25.641,53.63C25.901,53.49 26.117,53.307 26.291,53.08C26.464,52.847 26.594,52.59 26.681,52.31C26.774,52.023 26.821,51.737 26.821,51.45C26.821,51.143 26.771,50.85 26.671,50.57C26.577,50.283 26.441,50.03 26.261,49.81C26.087,49.583 25.871,49.407 25.611,49.28C25.357,49.147 25.071,49.08 24.751,49.08C24.411,49.08 24.111,49.15 23.851,49.29C23.597,49.423 23.384,49.603 23.211,49.83C23.037,50.057 22.904,50.31 22.811,50.59C22.724,50.87 22.681,51.157 22.681,51.45ZM34.989,53.17C34.989,53.57 34.886,53.907 34.679,54.18C34.473,54.447 34.193,54.65 33.839,54.79C33.493,54.93 33.113,55 32.699,55L29.269,55L29.269,47.9L33.069,47.9C33.403,47.9 33.689,47.99 33.929,48.17C34.176,48.343 34.363,48.57 34.489,48.85C34.623,49.123 34.689,49.41 34.689,49.71C34.689,50.05 34.603,50.373 34.429,50.68C34.256,50.987 34.003,51.213 33.669,51.36C34.076,51.48 34.396,51.697 34.629,52.01C34.869,52.323 34.989,52.71 34.989,53.17ZM33.599,52.91C33.599,52.73 33.563,52.57 33.489,52.43C33.416,52.283 33.316,52.17 33.189,52.09C33.069,52.003 32.929,51.96 32.769,51.96L30.649,51.96L30.649,53.83L32.699,53.83C32.866,53.83 33.016,53.79 33.149,53.71C33.289,53.623 33.399,53.51 33.479,53.37C33.559,53.23 33.599,53.077 33.599,52.91ZM30.649,49.08L30.649,50.87L32.489,50.87C32.643,50.87 32.783,50.833 32.909,50.76C33.036,50.687 33.136,50.583 33.209,50.45C33.289,50.317 33.329,50.157 33.329,49.97C33.329,49.79 33.293,49.633 33.219,49.5C33.153,49.367 33.059,49.263 32.939,49.19C32.826,49.117 32.696,49.08 32.549,49.08L30.649,49.08ZM36.066,55L36.066,47.9L37.446,47.9L37.446,55L36.066,55ZM38.928,55L38.928,47.9L40.308,47.9L40.308,53.79L43.928,53.79L43.928,55L38.928,55ZM44.767,55L44.767,47.9L46.147,47.9L46.147,55L44.767,55ZM52.939,49.11L50.669,49.11L50.669,55L49.299,55L49.299,49.11L47.029,49.11L47.029,47.9L52.939,47.9L52.939,49.11ZM54.62,47.9L56.37,51.24L58.15,47.9L59.64,47.9L57.06,52.52L57.06,55L55.69,55L55.69,52.5L53.12,47.9L54.62,47.9ZM17.188,69L17.188,61.9L17.888,61.9L17.888,69L17.188,69ZM20.368,63.19L20.368,69L19.668,69L19.668,61.9L20.248,61.9L24.908,67.82L24.908,61.91L25.608,61.91L25.608,69L24.958,69L20.368,63.19ZM31.543,63.23C31.443,63.117 31.326,63.017 31.193,62.93C31.06,62.837 30.91,62.757 30.743,62.69C30.576,62.623 30.396,62.57 30.203,62.53C30.016,62.49 29.816,62.47 29.603,62.47C28.983,62.47 28.526,62.59 28.233,62.83C27.946,63.063 27.803,63.383 27.803,63.79C27.803,64.07 27.87,64.29 28.003,64.45C28.143,64.61 28.36,64.74 28.653,64.84C28.946,64.94 29.32,65.043 29.773,65.15C30.28,65.257 30.716,65.383 31.083,65.53C31.45,65.677 31.733,65.877 31.933,66.13C32.133,66.377 32.233,66.713 32.233,67.14C32.233,67.467 32.17,67.75 32.043,67.99C31.916,68.23 31.74,68.43 31.513,68.59C31.286,68.75 31.016,68.87 30.703,68.95C30.39,69.023 30.046,69.06 29.673,69.06C29.306,69.06 28.953,69.023 28.613,68.95C28.28,68.87 27.963,68.757 27.663,68.61C27.363,68.457 27.083,68.263 26.823,68.03L27.173,67.46C27.3,67.593 27.45,67.72 27.623,67.84C27.803,67.953 28,68.057 28.213,68.15C28.433,68.243 28.666,68.317 28.913,68.37C29.166,68.417 29.426,68.44 29.693,68.44C30.26,68.44 30.7,68.337 31.013,68.13C31.333,67.923 31.493,67.617 31.493,67.21C31.493,66.917 31.413,66.683 31.253,66.51C31.093,66.33 30.853,66.183 30.533,66.07C30.213,65.957 29.82,65.847 29.353,65.74C28.86,65.627 28.443,65.5 28.103,65.36C27.763,65.22 27.506,65.037 27.333,64.81C27.166,64.577 27.083,64.27 27.083,63.89C27.083,63.45 27.19,63.08 27.403,62.78C27.623,62.473 27.923,62.243 28.303,62.09C28.683,61.93 29.12,61.85 29.613,61.85C29.926,61.85 30.216,61.883 30.483,61.95C30.756,62.01 31.006,62.1 31.233,62.22C31.466,62.34 31.683,62.49 31.883,62.67L31.543,63.23ZM33.467,69L33.467,61.9L34.167,61.9L34.167,69L33.467,69ZM38.798,69.05C38.324,69.05 37.884,68.95 37.478,68.75C37.071,68.543 36.718,68.267 36.418,67.92C36.118,67.573 35.884,67.187 35.718,66.76C35.558,66.333 35.478,65.893 35.478,65.44C35.478,64.96 35.558,64.507 35.718,64.08C35.884,63.647 36.114,63.263 36.408,62.93C36.701,62.597 37.048,62.333 37.448,62.14C37.848,61.947 38.284,61.85 38.758,61.85C39.458,61.85 40.028,61.993 40.468,62.28C40.908,62.567 41.241,62.94 41.468,63.4L40.928,63.76C40.701,63.32 40.398,62.997 40.018,62.79C39.638,62.583 39.214,62.48 38.748,62.48C38.354,62.48 37.998,62.563 37.678,62.73C37.364,62.897 37.094,63.12 36.868,63.4C36.641,63.68 36.468,63.997 36.348,64.35C36.234,64.703 36.178,65.07 36.178,65.45C36.178,65.85 36.244,66.23 36.378,66.59C36.511,66.943 36.701,67.26 36.948,67.54C37.194,67.813 37.478,68.03 37.798,68.19C38.124,68.343 38.474,68.42 38.848,68.42C39.281,68.42 39.691,68.313 40.078,68.1C40.464,67.88 40.834,67.543 41.188,67.09L41.188,67.83C40.514,68.643 39.718,69.05 38.798,69.05ZM41.078,66.05L39.498,66.05L39.498,65.51L41.668,65.51L41.668,69L41.078,69L41.078,66.05ZM48.706,61.9L48.706,69L48.016,69L48.016,65.68L43.806,65.68L43.806,69L43.106,69L43.106,61.9L43.806,61.9L43.806,65.06L48.016,65.06L48.016,61.9L48.706,61.9ZM55.529,62.52L52.999,62.52L52.999,69L52.299,69L52.299,62.52L49.769,62.52L49.769,61.9L55.529,61.9L55.529,62.52Z" style="fill-rule:nonzero;"/>
        </g>
    </g>
</svg>
