<?xml version="1.0" encoding="utf-8"?>
<!-- Generator: Adobe Illustrator 27.6.1, SVG Export Plug-In . SVG Version: 6.00 Build 0)  -->
<svg version="1.1" id="Layer_1" xmlns:serif="http://www.serif.com/"
	 xmlns="http://www.w3.org/2000/svg" xmlns:xlink="http://www.w3.org/1999/xlink" x="0px" y="0px" viewBox="0 0 1920 1080"
	 style="enable-background:new 0 0 1920 1080;" xml:space="preserve">
<style type="text/css">
	.st0{fill:#FFFFFF;}
</style>
<g transform="matrix(1,0,0,1,-2588.8,-533.243)">
	<g transform="matrix(1.25386,0,0,1.25386,2572.42,510.673)">
		<path class="st0" d="M768.9,18C702.4,18,636,26.3,636,84.5v157.8c0,32.1,26.1,58.2,58.2,58.2l-24.9,24.9v8.3h37.1l33.2-33.2h62.6
			l33.2,33.2h33.2v-8.3l-24.9-24.9c32.1,0,58.2-26.1,58.2-58.2V84.5C901.8,26.3,842.3,18,768.9,18z M694.1,267.2
			c-13.8,0-24.9-11.1-24.9-24.9c0-13.8,11.1-24.9,24.9-24.9s24.9,11.1,24.9,24.9C719,256.1,707.9,267.2,694.1,267.2z M752.3,150.9
			h-83.1V84.5h83.1V150.9z M785.5,150.9V84.5h83.1v66.5H785.5z M843.6,267.2c-13.8,0-24.9-11.1-24.9-24.9
			c0-13.8,11.1-24.9,24.9-24.9c13.8,0,24.9,11.1,24.9,24.9C868.6,256.1,857.4,267.2,843.6,267.2z"/>
	</g>
	<g transform="matrix(1.25386,0,0,1.25386,2572.42,510.673)">
		<path class="st0" d="M483.9,632.8v-77.4L453.7,613h-12.8l-30.2-57.7v77.4h-22.9v-118h24.6l34.9,67.1l35.2-67.1h24.4v118H483.9z
			 M581.8,633.6c-8.6,0-16.5-1.7-23.6-5c-7-3.3-13-7.8-18.1-13.5c-5-5.8-8.9-12.2-11.6-19.3c-2.8-7.2-4.2-14.6-4.2-22.1
			c0-7.9,1.4-15.3,4.3-22.4c3-7.2,7-13.6,12.1-19.1c5.2-5.6,11.3-10.1,18.3-13.3c7.1-3.3,14.8-5,23.3-5c8.5,0,16.3,1.7,23.3,5.2
			c7.1,3.4,13.1,8,18.1,13.8c5,5.8,8.9,12.2,11.6,19.3c2.8,7.1,4.2,14.4,4.2,21.9c0,7.8-1.4,15.2-4.3,22.4
			c-2.9,7.1-6.9,13.5-12.1,19.1c-5.1,5.5-11.2,9.9-18.3,13.1C597.8,632,590.1,633.6,581.8,633.6z M547.6,573.8
			c0,5.1,0.8,10,2.3,14.8c1.5,4.8,3.8,9,6.6,12.8c3,3.7,6.6,6.6,10.8,8.8c4.3,2.1,9.2,3.2,14.6,3.2c5.5,0,10.5-1.1,14.8-3.3
			c4.3-2.3,7.9-5.4,10.8-9.1c2.9-3.9,5-8.1,6.5-12.8c1.5-4.8,2.3-9.5,2.3-14.3c0-5.1-0.8-10-2.5-14.6c-1.6-4.8-3.8-9-6.8-12.6
			c-2.9-3.8-6.5-6.7-10.8-8.8c-4.2-2.2-9-3.3-14.3-3.3c-5.6,0-10.6,1.2-15,3.5c-4.2,2.2-7.8,5.2-10.6,9c-2.9,3.8-5.1,8-6.6,12.6
			C548.3,564.1,547.6,568.9,547.6,573.8z M752.1,602.4c0,6.6-1.7,12.2-5.2,16.8c-3.4,4.4-8.1,7.8-14,10.1
			c-5.7,2.3-12.1,3.5-18.9,3.5h-57v-118h63.1c5.5,0,10.3,1.5,14.3,4.5c4.1,2.9,7.2,6.6,9.3,11.3c2.2,4.5,3.3,9.3,3.3,14.3
			c0,5.6-1.4,11-4.3,16.1c-2.9,5.1-7.1,8.9-12.6,11.3c6.8,2,12.1,5.6,16,10.8C750.1,588.3,752.1,594.7,752.1,602.4z M729,598
			c0-3-0.6-5.6-1.8-8c-1.2-2.4-2.9-4.3-5-5.6c-2-1.4-4.3-2.2-7-2.2H680v31.1H714c2.8,0,5.3-0.7,7.5-2c2.3-1.4,4.2-3.3,5.5-5.6
			C728.3,603.4,729,600.8,729,598z M680,534.4v29.7h30.6c2.6,0,4.9-0.6,7-1.8c2.1-1.2,3.8-2.9,5-5.2c1.3-2.2,2-4.9,2-8
			c0-3-0.6-5.6-1.8-7.8c-1.1-2.2-2.7-3.9-4.7-5.2c-1.9-1.2-4-1.8-6.5-1.8H680z M770,632.8v-118h22.9v118H770z M817.5,632.8v-118
			h22.9v97.9h60.1v20.1H817.5z M914.5,632.8v-118h22.9v118H914.5z M1050.3,534.9h-37.7v97.9h-22.8v-97.9h-37.7v-20.1h98.2V534.9z
			 M1078.3,514.8l29.1,55.5l29.6-55.5h24.8l-42.9,76.8v41.2H1096v-41.5l-42.7-76.4H1078.3z M456.3,865.4v-118h11.6v118H456.3z
			 M509.1,768.8v96.5h-11.6v-118h9.6l77.4,98.4v-98.2h11.6v117.8h-10.8L509.1,768.8z M694.8,769.5c-1.7-1.9-3.6-3.5-5.8-5
			c-2.2-1.5-4.7-2.9-7.5-4c-2.8-1.1-5.8-2-9-2.7c-3.1-0.7-6.4-1-10-1c-10.3,0-17.9,2-22.8,6c-4.8,3.9-7.1,9.2-7.1,16
			c0,4.7,1.1,8.3,3.3,11c2.3,2.7,5.9,4.8,10.8,6.5c4.9,1.7,11.1,3.4,18.6,5.2c8.4,1.8,15.7,3.9,21.8,6.3c6.1,2.4,10.8,5.8,14.1,10
			c3.3,4.1,5,9.7,5,16.8c0,5.4-1,10.1-3.2,14.1c-2.1,4-5,7.3-8.8,10c-3.8,2.7-8.3,4.7-13.5,6c-5.2,1.2-10.9,1.8-17.1,1.8
			c-6.1,0-12-0.6-17.6-1.8c-5.5-1.3-10.8-3.2-15.8-5.6c-5-2.5-9.6-5.8-14-9.6l5.8-9.5c2.1,2.2,4.6,4.3,7.5,6.3
			c3,1.9,6.3,3.6,9.8,5.2c3.7,1.5,7.5,2.8,11.6,3.7c4.2,0.8,8.5,1.2,13,1.2c9.4,0,16.7-1.7,21.9-5.2c5.3-3.4,8-8.5,8-15.3
			c0-4.9-1.3-8.8-4-11.6c-2.7-3-6.6-5.4-12-7.3c-5.3-1.9-11.8-3.7-19.6-5.5c-8.2-1.9-15.1-4-20.8-6.3c-5.6-2.3-9.9-5.4-12.8-9.1
			c-2.8-3.9-4.2-9-4.2-15.3c0-7.3,1.8-13.5,5.3-18.4c3.7-5.1,8.6-8.9,15-11.5c6.3-2.7,13.6-4,21.8-4c5.2,0,10,0.5,14.5,1.7
			c4.5,1,8.7,2.5,12.5,4.5c3.9,2,7.5,4.5,10.8,7.5L694.8,769.5z M726.8,865.4v-118h11.6v118H726.8z M815.4,866.2
			c-7.9,0-15.2-1.7-21.9-5c-6.8-3.4-12.6-8-17.6-13.8c-5-5.8-8.9-12.2-11.6-19.3c-2.7-7.1-4-14.4-4-21.9c0-8,1.3-15.5,4-22.6
			c2.8-7.2,6.6-13.6,11.5-19.1c4.9-5.5,10.6-9.9,17.3-13.1c6.6-3.2,13.9-4.8,21.8-4.8c11.6,0,21.1,2.4,28.4,7.1
			c7.3,4.8,12.8,11,16.6,18.6l-9,6c-3.8-7.3-8.8-12.7-15.1-16.1c-6.3-3.4-13.4-5.2-21.1-5.2c-6.5,0-12.5,1.4-17.8,4.2
			c-5.2,2.8-9.7,6.5-13.5,11.1c-3.8,4.7-6.6,9.9-8.6,15.8c-1.9,5.9-2.8,12-2.8,18.3c0,6.6,1.1,13,3.3,18.9
			c2.2,5.9,5.4,11.1,9.5,15.8c4.1,4.5,8.8,8.1,14.1,10.8c5.4,2.5,11.2,3.8,17.4,3.8c7.2,0,14-1.8,20.4-5.3
			c6.4-3.7,12.6-9.3,18.4-16.8v12.3C843.9,859.4,830.7,866.2,815.4,866.2z M853.3,816.4H827v-9h36.1v58h-9.8V816.4z M980,747.4v118
			h-11.5v-55.2h-70v55.2h-11.6v-118h11.6v52.5h70v-52.5H980z M1093.4,757.7h-42v107.7h-11.6V757.7h-42v-10.3h95.7V757.7z"/>
	</g>
</g>
</svg>
